# xmcd
#
# Track frame offsets:
#	150
#	16627
#	30857
#	42157
#	53689
#	67570
#	79372
#	92215
#	104370
#	116665
#	130767
#	144550
#	156550
#	169807
#	183125
#	196100
#	208375
#	221287
#	234332
#	248515
#
# Disc length: 3478 seconds
#
# Revision: 1
# Processed by: cddbd v1.5.2PL0 Copyright (c) Steve Scherf et al.
# Submitted via: dBpowerAMP V4.0
#
DISCID=000d9414
DTITLE=Various Artist - Guitar Blues Brothers 1
DYEAR=2002
DGENRE=Blues
TTITLE0=B. B. King - the Other Night Blues
TTITLE1=Lowell Fulson - Three O'clock Blues
TTITLE2=John Lee Hooker - Goin' Down Highway 51
TTITLE3=Smokey Hogg - Restless Bedroom Blues
TTITLE4=Big Bill Bronzy and His Fat 4 - I Love My Whiskey
TTITLE5=Floyd Dixon - Johnny Katherine
TTITLE6=Brownie McGhee - I'm A Black Woman's Man
TTITLE7=Blind Boy Fuller - You Got to Have Your Dollar
TTITLE8=T-Bone Walker - No Worry Blues
TTITLE9=Muddy Waters - Rolling Stone
TTITLE10=Arthur Big Boy Crudup - Katie May
TTITLE11=Lightning Hopkins - Have to Let You Go
TTITLE12=Sleepy John Estes - Jailhouse Blues
TTITLE13=Sonny Boy Williamson - Stop Breakin' Down
TTITLE14=Bukka White - Strange Place Blues
TTITLE15=Sonny Terry - Whoopin' the Blues
TTITLE16=Big Joe Williams - Crawling King Snake
TTITLE17=Leadbelly - Good Morning Blues
TTITLE18=St. Louis Jimmy - Shame on You Baby
TTITLE19=Smokey Hogg - I Don't Want No Bloodstains
EXTD=
EXTT0=
EXTT1=
EXTT2=
EXTT3=
EXTT4=
EXTT5=
EXTT6=
EXTT7=
EXTT8=
EXTT9=
EXTT10=
EXTT11=
EXTT12=
EXTT13=
EXTT14=
EXTT15=
EXTT16=
EXTT17=
EXTT18=
EXTT19=
PLAYORDER=
